HIERARCHY
ROOT leWrist
{
	OFFSET 0.00 0.00 0.00
	CHANNELS 6 Xposition Yposition Zposition Xrotation Yrotation Zrotation
	JOINT leHand
	{
		OFFSET 0.11942 0.36471 -0.08791
		CHANNELS 3 Xrotation Yrotation Zrotation
		JOINT LeIndexMP
		{
			OFFSET 1.09197 2.42158 -0.70498
			CHANNELS 2 Zrotation Yrotation
			JOINT LeIndexPIP
			{
				OFFSET 0.54914 1.69807 0.00037
				CHANNELS 1 Zrotation
				JOINT LeIndexDIP
				{
					OFFSET 0.34223 0.98477 -0.13890
					CHANNELS 1 Zrotation
					End Site
					{
						OFFSET 0.30414 0.90123 -0.07454
					}
				}
			}
		}
		JOINT LeMiddleMP
		{
			OFFSET 0.20570 2.50174 -0.52444
			CHANNELS 2 Zrotation Yrotation
			JOINT LeMiddlePIP
			{
				OFFSET -0.25811 1.79891 -0.09553
				CHANNELS 1 Zrotation
				JOINT LeMiddleDIP
				{
					OFFSET -0.15680 1.09225 -0.05298
					CHANNELS 1 Zrotation
					End Site
					{
						OFFSET -0.15297 1.06215 -0.02141
					}
				}
			}
		}
		JOINT LeRingMP
		{
			OFFSET -0.68298 2.32110 -0.37433
			CHANNELS 2 Zrotation Yrotation
			JOINT LeRingPIP
			{
				OFFSET -0.56320 1.55045 -0.08792
				CHANNELS 1 Zrotation
				JOINT LeRingDIP
				{
					OFFSET -0.34522 0.95085 -0.05080
					CHANNELS 1 Zrotation
					End Site
					{
						OFFSET -0.35953 0.99671 -0.01102
					}
				}
			}
		}
		JOINT LePinkyMP
		{
			OFFSET -1.60546 2.01050 -0.41468
			CHANNELS 2 Zrotation Yrotation
			JOINT LePinkyPIP
			{
				OFFSET -0.81697 0.78962 -0.37932
				CHANNELS 1 Zrotation
				JOINT LePinkyDIP
				{
					OFFSET -0.51445 0.51600 -0.16745
					CHANNELS 1 Zrotation
					End Site
					{
						OFFSET -0.66687 0.68407 -0.15932
					}
				}
			}
		}
		JOINT LeThumbCMC
		{
			OFFSET 1.32642 0.01652 -0.91353
			CHANNELS 3 Xrotation Yrotation Zrotation
			JOINT LeThumbMP
			{
				OFFSET 0.56037 -0.04452 -1.10949
				CHANNELS 1 Zrotation
				JOINT LeThumbIP
				{
					OFFSET 0.56894 -0.31394 -0.93677
					CHANNELS 1 Zrotation
					End Site
					{
						OFFSET 0.15316 0.30870 -1.10710
					}
				}
			}
		}
	}
}
MOTION
Frames: 45
Frame Time: 0.008333
 32.4396 50.0293 -6.9587 -114.8427 9.9412 -101.8002 27.4899 2.2218 -18.1815 29.2566 10.5393 -1.9133 -2.0448 4.2663 -0.0483 -1.1127 -2.1970 -12.0270 -4.4631 0.1516 -0.1465 -32.8365 -4.6143 1.6293 1.6480 32.6082 3.6166 53.9402 2.8745 -20.5048
 32.4388 50.0237 -6.9574 -114.8438 9.8108 -101.6785 27.3524 2.1813 -18.2476 29.1337 10.5461 -1.8875 -2.0252 4.1711 -0.0796 -1.0355 -2.2690 -12.0737 -4.4199 0.1446 -0.1323 -32.9005 -4.6016 1.6435 1.6282 32.5145 3.6912 53.8127 2.9006 -20.3218
 32.4381 50.0176 -6.9586 -114.8591 9.8112 -101.6760 27.3035 2.2214 -18.2346 29.0484 10.5192 -1.8789 -2.0351 4.0911 -0.0816 -1.0243 -2.2807 -12.1378 -4.3121 0.1338 -0.1229 -32.8822 -4.9018 1.5969 1.6613 32.4503 3.8511 53.8831 2.8945 -20.3856
 32.4378 50.0116 -6.9551 -114.8342 9.9145 -101.5957 27.4678 2.1251 -18.3184 29.1376 10.5578 -1.9030 -2.0219 4.1378 -0.0601 -1.0636 -2.2419 -12.0689 -4.3959 0.1396 -0.1543 -32.7687 -4.9246 1.5972 1.6738 32.3217 4.2895 53.6324 2.8641 -20.0689
 32.4401 50.0071 -6.9581 -114.8479 9.9049 -101.5419 27.4482 2.2207 -18.4328 29.1863 10.6221 -1.8722 -2.1334 4.1786 -0.0632 -1.0197 -2.2822 -12.0330 -4.4093 0.1394 -0.1384 -32.7522 -4.9706 1.5941 1.6818 31.9515 3.9519 54.4831 2.9466 -20.5089
 32.4411 50.0036 -6.9592 -114.8362 9.9322 -101.5503 27.4619 2.1868 -18.4119 29.1623 10.6550 -1.8834 -2.0647 4.1109 -0.0730 -1.0053 -2.3019 -12.0116 -4.4659 0.1450 -0.1393 -32.7281 -4.9930 1.5987 1.6713 31.7892 4.1789 54.4981 2.9313 -20.5103
 32.4427 49.9996 -6.9611 -114.7855 9.9411 -101.5821 27.4835 2.1693 -18.3777 29.1741 10.7363 -1.9311 -1.9774 4.0729 -0.0788 -0.9928 -2.3184 -11.9783 -4.5132 0.1469 -0.1322 -32.6910 -5.0367 1.6003 1.6685 31.6991 4.2348 54.3535 2.9637 -20.3936
 32.4415 49.9982 -6.9624 -114.7990 10.0127 -101.5814 27.4653 2.1180 -18.3145 29.1886 11.0688 -1.8595 -2.0963 4.0349 -0.1121 -0.9020 -2.3956 -12.0133 -4.5750 0.1554 -0.1404 -32.8150 -4.8143 1.6242 1.6618 31.7670 4.6553 53.8794 2.9277 -20.3361
 32.4436 49.9970 -6.9638 -114.8237 10.0004 -101.5568 27.3999 2.2110 -18.3257 29.1307 10.9082 -1.9052 -2.0188 3.9344 -0.0958 -0.9469 -2.3542 -11.9966 -4.4885 0.1437 -0.1265 -32.7876 -4.8416 1.6249 1.6458 31.5365 4.5465 54.1802 2.9524 -20.5629
 32.4452 49.9950 -6.9669 -114.7866 10.1098 -101.6331 27.4715 2.3355 -18.2532 29.0570 11.0604 -1.8581 -2.0669 3.8631 -0.1022 -0.9284 -2.3748 -12.0480 -4.4334 0.1357 -0.1152 -32.8013 -4.8604 1.6265 1.6392 31.5277 4.4222 54.1356 2.9853 -20.3596
 32.4475 49.9925 -6.9706 -114.7382 10.1440 -101.6118 27.4741 2.3401 -18.2531 29.0306 11.0291 -1.9061 -2.0685 3.7806 -0.1096 -0.9144 -2.4049 -12.0949 -4.4487 0.1412 -0.1187 -32.8832 -4.8242 1.6299 1.6402 31.4331 4.3897 54.2512 2.9877 -20.4455
 32.4482 49.9924 -6.9730 -114.7332 10.1881 -101.6632 27.4273 2.3157 -18.1897 29.0570 11.1812 -1.8720 -2.0670 3.7357 -0.1092 -0.9077 -2.4131 -12.0662 -4.3750 0.1405 -0.1414 -32.8746 -4.6346 1.6287 1.6561 31.3404 4.6299 54.2563 2.9517 -20.4150
 32.4490 49.9914 -6.9758 -114.7171 10.1662 -101.6513 27.3865 2.3510 -18.1775 29.0469 11.1691 -1.8964 -2.0411 3.6516 -0.1146 -0.9069 -2.4158 -12.0779 -4.3744 0.1421 -0.1403 -32.8971 -4.6528 1.6264 1.6585 31.3430 4.6885 54.2544 2.9488 -20.5702
 32.4499 49.9909 -6.9779 -114.7420 10.1201 -101.6529 27.3648 2.4204 -18.1652 29.0796 11.3423 -1.8816 -2.1022 3.6090 -0.1230 -0.9058 -2.4115 -12.0597 -4.4187 0.1453 -0.1282 -32.8605 -4.7833 1.6163 1.6674 31.3680 4.7539 53.9796 2.9645 -20.6586
 32.4510 49.9907 -6.9808 -114.7509 10.0965 -101.6595 27.3215 2.4308 -18.1458 29.0942 11.4175 -1.8845 -2.0963 3.5141 -0.1335 -0.9061 -2.4394 -12.0428 -4.3505 0.1377 -0.1215 -32.8494 -4.8054 1.6086 1.6703 31.3213 4.8233 53.8281 2.9758 -20.1692
 32.4521 49.9878 -6.9837 -114.7204 10.1476 -101.6525 27.3962 2.3390 -18.1438 29.0880 11.4934 -1.8889 -2.0500 3.4504 -0.1546 -0.8883 -2.4573 -11.9161 -4.3377 0.1380 -0.1295 -32.8379 -4.7290 1.6119 1.6669 31.2594 5.0492 53.8667 2.9412 -20.2969
 32.4529 49.9863 -6.9862 -114.7199 10.1400 -101.6613 27.3875 2.3365 -18.1415 29.1385 11.5504 -1.8900 -2.0543 3.4104 -0.1455 -0.9118 -2.4378 -11.8935 -4.3366 0.1421 -0.1344 -32.8026 -4.7188 1.6085 1.6683 31.1896 5.0826 54.0169 2.9351 -20.3013
 32.4555 49.9821 -6.9909 -114.7017 10.0723 -101.4833 27.3907 2.2011 -18.2603 29.0530 11.6133 -1.9005 -2.0439 3.2699 -0.1814 -0.8907 -2.4396 -12.0096 -4.4120 0.1470 -0.1530 -32.9645 -4.6175 1.6258 1.6642 31.1313 4.8877 53.9346 2.9819 -20.4227
 32.4552 49.9825 -6.9921 -114.7154 10.0425 -101.5128 27.2995 2.2377 -18.1805 29.0571 11.5424 -1.8968 -2.0738 3.3689 -0.1631 -0.8953 -2.4320 -12.0039 -4.3923 0.1491 -0.1528 -32.9382 -4.7734 1.6145 1.6476 31.1714 5.0597 53.9164 2.9611 -20.5089
 32.4560 49.9821 -6.9938 -114.7487 10.0199 -101.5192 27.2921 2.3025 -18.1906 29.1950 11.6376 -1.9111 -2.0994 3.4545 -0.1526 -0.8998 -2.4267 -11.9570 -4.3596 0.1385 -0.1468 -32.8393 -4.9025 1.6121 1.6485 31.0430 5.0251 54.1914 2.9436 -20.4795
 32.4569 49.9813 -6.9976 -114.7669 10.0133 -101.4850 27.2385 2.2689 -18.1608 29.1030 11.6576 -1.9198 -2.0259 3.3280 -0.1624 -0.9063 -2.4235 -12.0762 -4.3542 0.1374 -0.1556 -32.9416 -4.8544 1.6191 1.6414 31.0486 5.0805 54.0342 2.9568 -20.5378
 32.4578 49.9801 -7.0003 -114.7444 10.0125 -101.4761 27.2114 2.2886 -18.1411 29.0789 11.6162 -1.9311 -2.0308 3.2832 -0.1691 -0.8981 -2.4430 -12.1050 -4.3203 0.1274 -0.1354 -32.9910 -4.7580 1.6249 1.6416 31.0992 5.1726 53.8844 2.9460 -20.1012
 32.4591 49.9763 -7.0023 -114.6698 10.0600 -101.4083 27.3270 2.2485 -18.2579 29.1818 11.7066 -1.9432 -2.0061 3.3820 -0.1563 -0.8973 -2.4420 -12.0195 -4.3035 0.1224 -0.1412 -32.8582 -4.8599 1.6186 1.6478 31.0799 5.0674 54.0129 2.9780 -20.2046
 32.4595 49.9748 -7.0035 -114.6304 10.1173 -101.4141 27.4195 2.2178 -18.2515 29.2576 11.9114 -1.9079 -2.1030 3.4284 -0.1563 -0.8929 -2.4508 -11.9627 -4.3181 0.1196 -0.1421 -32.8155 -4.8565 1.6207 1.6496 30.9991 5.1234 54.0561 2.9766 -20.4231
 32.4590 49.9738 -7.0045 -114.6307 10.1020 -101.4239 27.4101 2.2312 -18.2450 29.3108 11.9654 -1.9157 -2.0940 3.4769 -0.1580 -0.8828 -2.4537 -11.9296 -4.3656 0.1267 -0.1527 -32.7794 -4.9011 1.6145 1.6577 30.9007 5.1443 54.1379 2.9952 -20.5351
 32.4583 49.9737 -7.0068 -114.6878 10.0463 -101.4378 27.2692 2.2522 -18.2002 29.2883 11.9319 -1.9270 -2.0464 3.4485 -0.1854 -0.8207 -2.5152 -11.9677 -4.2920 0.1233 -0.1620 -32.8795 -4.7503 1.6124 1.6628 31.1428 5.6288 53.4456 2.9354 -20.0131
 32.4577 49.9727 -7.0089 -114.6608 10.0782 -101.4717 27.3198 2.2753 -18.1463 29.2564 11.9544 -1.9312 -2.0400 3.4095 -0.1903 -0.8241 -2.5112 -11.9926 -4.3124 0.1254 -0.1597 -32.9414 -4.7807 1.6109 1.6659 31.1807 5.7259 53.2638 2.9410 -19.9464
 32.4578 49.9702 -7.0113 -114.5999 10.0530 -101.4516 27.3414 2.2117 -18.1624 29.2552 12.1450 -1.8959 -2.0701 3.4076 -0.1931 -0.8257 -2.5128 -11.8810 -4.2225 0.1079 -0.1581 -32.8692 -4.8101 1.6035 1.6740 31.0636 5.6873 53.3768 2.9443 -19.8886
 32.4581 49.9681 -7.0137 -114.5595 10.0339 -101.4676 27.3753 2.2661 -18.1513 29.1957 12.0591 -1.8964 -2.1032 3.3319 -0.1640 -0.9034 -2.4467 -11.8842 -4.2481 0.1124 -0.1691 -32.8421 -4.9093 1.5944 1.6824 31.0450 5.5388 53.4827 2.9636 -19.9773
 32.4579 49.9670 -7.0155 -114.5591 10.0424 -101.4467 27.3882 2.2810 -18.1584 29.2293 11.9189 -1.9460 -2.0941 3.3511 -0.1927 -0.8442 -2.5025 -11.9747 -4.2550 0.1115 -0.1574 -32.8527 -4.9238 1.5909 1.6849 30.7217 5.4354 53.9695 3.0216 -20.2202
 32.4578 49.9649 -7.0163 -114.5653 10.0736 -101.4477 27.4220 2.2158 -18.1586 29.2978 11.9699 -1.9618 -2.0485 3.3842 -0.1908 -0.8430 -2.5016 -11.8648 -4.2134 0.1057 -0.1638 -32.8471 -4.8196 1.5904 1.6859 30.6654 5.6769 53.9349 3.0057 -20.2104
 32.4574 49.9652 -7.0176 -114.5966 10.1190 -101.4320 27.4459 2.2465 -18.1596 29.2624 11.9743 -1.9425 -2.0891 3.3514 -0.1916 -0.8490 -2.4933 -11.8888 -4.2235 0.1112 -0.1732 -32.8763 -4.7931 1.5909 1.6959 30.7004 5.8382 53.7588 2.9906 -20.1361
 32.4569 49.9659 -7.0183 -114.5689 10.1233 -101.5332 27.4194 2.2392 -18.0399 29.2558 11.8829 -1.9615 -2.0458 3.3063 -0.1585 -0.9204 -2.4307 -11.9293 -4.1888 0.1094 -0.1668 -32.8691 -4.7477 1.5873 1.6936 30.6630 6.0413 53.7382 2.9671 -20.1161
 32.4568 49.9657 -7.0208 -114.5456 10.0964 -101.5415 27.3998 2.2555 -18.0407 29.2329 11.8781 -1.9683 -2.0349 3.2939 -0.1627 -0.9174 -2.4298 -11.9310 -4.1626 0.1023 -0.1618 -32.8243 -4.8120 1.5863 1.6970 30.6247 6.0393 53.8062 2.9514 -20.0597
 32.4566 49.9664 -7.0235 -114.5919 10.1557 -101.5886 27.4163 2.3867 -17.9999 29.1739 11.7848 -1.9852 -2.0183 3.5665 -0.1286 -0.9236 -2.4003 -11.9835 -4.1860 0.1057 -0.1660 -32.8599 -4.8611 1.5836 1.6962 30.6410 6.0231 53.7934 2.9505 -20.0944
 32.4567 49.9647 -7.0256 -114.5620 10.1551 -101.5433 27.4198 2.2866 -18.0308 29.2350 11.9231 -1.9615 -2.0406 3.2488 -0.1626 -0.9309 -2.4077 -12.0031 -4.1642 0.1017 -0.1668 -32.9168 -4.7515 1.5938 1.6912 30.6196 6.1142 53.7490 2.9410 -20.0352
 32.4560 49.9638 -7.0266 -114.5681 10.1643 -101.5293 27.4315 2.2985 -18.0528 29.2688 11.9385 -1.9492 -2.0676 3.3549 -0.1511 -0.9319 -2.4097 -11.9889 -4.1707 0.1044 -0.1715 -32.9048 -4.7614 1.5932 1.6930 30.5706 6.0823 53.8934 2.9358 -20.0033
 32.4554 49.9648 -7.0264 -114.5839 10.1477 -101.5549 27.4084 2.3686 -18.0400 29.2633 11.9109 -1.9671 -2.0361 3.5924 -0.1248 -0.9252 -2.4090 -11.9343 -4.1790 0.1060 -0.1722 -32.8471 -4.8261 1.5910 1.6921 30.5672 6.0898 53.9080 2.9354 -20.0266
 32.4541 49.9620 -7.0282 -114.5322 10.1357 -101.5039 27.4783 2.2506 -18.1174 29.3680 12.1926 -1.9276 -2.1307 3.5096 -0.1419 -0.9226 -2.4306 -11.9089 -4.2323 0.1068 -0.1798 -32.7467 -4.9452 1.5847 1.7001 30.4592 6.0465 54.0058 2.9599 -20.0889
 32.4533 49.9609 -7.0290 -114.5208 10.1551 -101.5196 27.4783 2.2549 -18.1004 29.3619 12.1265 -1.9338 -2.1349 3.4720 -0.1387 -0.9335 -2.4266 -11.8933 -4.1872 0.1062 -0.1830 -32.7580 -4.8846 1.5887 1.6998 30.5012 6.1000 53.9780 2.9441 -20.0348
 32.4523 49.9606 -7.0302 -114.5378 10.1161 -101.5703 27.4352 2.3041 -18.0507 29.3083 12.0574 -1.9489 -2.0982 3.6447 -0.1227 -0.9207 -2.4147 -11.8900 -4.1953 0.1067 -0.1746 -32.7649 -4.9376 1.5924 1.6952 30.4885 6.0468 53.9875 2.9518 -20.0159
 32.4502 49.9606 -7.0301 -114.5879 10.1082 -101.6011 27.4460 2.2709 -18.0384 29.3815 12.3162 -1.9217 -2.1072 3.7519 -0.1244 -0.9017 -2.4143 -11.8047 -4.3576 0.1266 -0.1844 -32.6635 -5.0538 1.5890 1.6963 30.3681 6.2118 53.9781 2.9392 -19.9771
 32.4497 49.9588 -7.0308 -114.6297 10.0951 -101.5817 27.4002 2.2868 -18.0393 29.3224 12.2973 -1.9262 -2.1058 3.6764 -0.1286 -0.9094 -2.4242 -11.8796 -4.3443 0.1240 -0.1775 -32.7555 -5.0219 1.5906 1.6974 30.3934 6.1875 53.8750 2.9539 -20.0136
 32.4492 49.9552 -7.0338 -114.6272 10.1088 -101.5138 27.4311 2.2656 -18.0826 29.2315 12.3107 -1.9215 -2.1265 3.4292 -0.1610 -0.9249 -2.4299 -11.9753 -4.3174 0.1109 -0.1694 -32.8820 -5.0443 1.6054 1.6865 30.3673 5.9961 53.8650 2.9746 -19.9887
 32.4472 49.9539 -7.0327 -114.5797 10.1370 -101.5664 27.3664 2.2427 -18.0246 29.3209 12.3003 -1.9529 -2.0991 3.4099 -0.1515 -0.9458 -2.4255 -11.9564 -4.2536 0.1112 -0.1691 -32.8675 -4.8807 1.6087 1.6830 30.7628 6.3970 53.1259 2.9074 -19.7087
